ffmpeg started on 2026-01-18 at 19:39:38
Report written to "C:\Dev\OSPanel\domains\Java-AT\modules\ffmpeg\FFMetrics\reports\ssim_report-6.txt"
Log level: 32
Command line:
ffmpeg -hide_banner -nostdin -r 24000/1001 -i "F:\\Convert\\files\\[DC] Make Heroine ga Oosugiru - 07_Telegram_HEVC(146).mkv" -r 24000/1001 -i "F:\\Convert\\files\\[DC] Make Heroine ga Oosugiru - 07_Telegram.mp4" -lavfi "[0:v]settb=AVTB,setpts=PTS-STARTPTS,format=pix_fmts=yuv420p10le,fps=24000/1001,scale=1920:1080:flags=lanczos:param0=3:out_range=limited:out_color_matrix=bt709:out_chroma_loc=left,setsar=1/1,setdar=(1920/1080)*(1/1),colorspace=format=yuv420p10:range=tv:primaries=bt709:trc=bt709:space=bt709:fast=0[main];[1:v]settb=AVTB,setpts=PTS-STARTPTS,format=pix_fmts=yuv420p,fps=24000/1001,scale=1920:1080:flags=lanczos:param0=3:out_range=limited:out_color_matrix=bt709:out_chroma_loc=left,setsar=1.000,setdar=1.778,colorspace=format=yuv420p:range=tv:primaries=bt709:trc=bt709:space=bt709:fast=0[ref];[main][ref]ssim=eof_action=endall:stats_file='C\\:/Dev/OSPanel/domains/Java-AT/modules/ffmpeg/FFMetrics/logs/ssim_logfile-6.txt'" -f null -
Input #0, matroska,webm, from 'F:\Convert\files\[DC] Make Heroine ga Oosugiru - 07_Telegram_HEVC(146).mkv':
  Metadata:
    COMPATIBLE_BRANDS: isomiso2avc1mp41
    MAJOR_BRAND     : isom
    MINOR_VERSION   : 512
    ENCODER         : Lavf61.7.100
  Duration: 00:24:06.79, start: -0.021000, bitrate: 979 kb/s
  Stream #0:0: Video: hevc (Main 10), yuv420p10le(tv, bt709, progressive), 1920x1080 [SAR 1:1 DAR 16:9], 23.98 fps, 23.98 tbr, 1k tbn (default)
      Metadata:
        HANDLER_NAME    : VideoHandler
        VENDOR_ID       : [0][0][0][0]
        ENCODER         : Lavc61.19.100 libx265
        BPS             : 782860
        DURATION        : 00:24:06.569708333
        NUMBER_OF_FRAMES: 34683
        NUMBER_OF_BYTES : 141557788
        _STATISTICS_WRITING_APP: mkvpropedit v94.0 ('Initiate') 64-bit
        _STATISTICS_WRITING_DATE_UTC: 2026-01-17 14:52:35
        _STATISTICS_TAGS: BPS DURATION NUMBER_OF_FRAMES NUMBER_OF_BYTES
  Stream #0:1: Audio: aac (LC), 48000 Hz, stereo, fltp (default)
      Metadata:
        HANDLER_NAME    : SoundHandler
        VENDOR_ID       : [0][0][0][0]
        ENCODER         : Lavc61.19.100 aac
        BPS             : 193194
        DURATION        : 00:24:06.784000000
        NUMBER_OF_FRAMES: 67819
        NUMBER_OF_BYTES : 34938755
        _STATISTICS_WRITING_APP: mkvpropedit v94.0 ('Initiate') 64-bit
        _STATISTICS_WRITING_DATE_UTC: 2026-01-17 14:52:35
        _STATISTICS_TAGS: BPS DURATION NUMBER_OF_FRAMES NUMBER_OF_BYTES
Input #1, mov,mp4,m4a,3gp,3g2,mj2, from 'F:\Convert\files\[DC] Make Heroine ga Oosugiru - 07_Telegram.mp4':
  Metadata:
    major_brand     : isom
    minor_version   : 512
    compatible_brands: isomiso2avc1mp41
    encoder         : Lavf60.16.100
  Duration: 00:24:06.74, start: 0.000000, bitrate: 3764 kb/s
  Stream #1:0[0x1](und): Video: h264 (High) (avc1 / 0x31637661), yuv420p(tv, bt709, progressive), 1920x1080 [SAR 1:1 DAR 16:9], 3616 kb/s, 23.98 fps, 23.98 tbr, 24k tbn (default)
      Metadata:
        handler_name    : VideoHandler
        vendor_id       : [0][0][0][0]
        encoder         : Lavc60.31.102 h264_qsv
  Stream #1:1[0x2](und): Audio: aac (HE-AACv2) (mp4a / 0x6134706D), 48000 Hz, stereo, fltp, 144 kb/s (default)
      Metadata:
        handler_name    : SoundHandler
        vendor_id       : [0][0][0][0]
Stream mapping:
  Stream #0:0 (hevc) -> settb:default
  Stream #1:0 (h264) -> settb:default
  ssim:default -> Stream #0:0 (wrapped_avframe)
  Stream #0:1 -> #0:1 (aac (native) -> pcm_s16le (native))
Output #0, null, to 'pipe:':
  Metadata:
    COMPATIBLE_BRANDS: isomiso2avc1mp41
    MAJOR_BRAND     : isom
    MINOR_VERSION   : 512
    encoder         : Lavf61.7.100
  Stream #0:0: Video: wrapped_avframe, yuv420p10le(tv, bt709, progressive), 1920x1080 [SAR 1:1 DAR 16:9], q=2-31, 200 kb/s, 23.98 fps, 23.98 tbn
      Metadata:
        encoder         : Lavc61.19.100 wrapped_avframe
  Stream #0:1: Audio: pcm_s16le, 48000 Hz, stereo, s16, 1536 kb/s (default)
      Metadata:
        HANDLER_NAME    : SoundHandler
        VENDOR_ID       : [0][0][0][0]
        _STATISTICS_TAGS: BPS DURATION NUMBER_OF_FRAMES NUMBER_OF_BYTES
        BPS             : 193194
        DURATION        : 00:24:06.784000000
        NUMBER_OF_FRAMES: 67819
        NUMBER_OF_BYTES : 34938755
        _STATISTICS_WRITING_APP: mkvpropedit v94.0 ('Initiate') 64-bit
        _STATISTICS_WRITING_DATE_UTC: 2026-01-17 14:52:35
        encoder         : Lavc61.19.100 pcm_s16le
frame=  133 fps=0.0 q=-0.0 size=N/A time=00:00:05.54 bitrate=N/A speed=10.7x    frame=  331 fps=321 q=-0.0 size=N/A time=00:00:13.80 bitrate=N/A speed=13.4x    frame=  535 fps=347 q=-0.0 size=N/A time=00:00:22.31 bitrate=N/A speed=14.5x    frame=  734 fps=357 q=-0.0 size=N/A time=00:00:30.61 bitrate=N/A speed=14.9x    frame=  918 fps=355 q=-0.0 size=N/A time=00:00:38.28 bitrate=N/A speed=14.8x    frame= 1070 fps=346 q=-0.0 size=N/A time=00:00:44.62 bitrate=N/A speed=14.4x    frame= 1230 fps=341 q=-0.0 size=N/A time=00:00:51.30 bitrate=N/A speed=14.2x    frame= 1398 fps=339 q=-0.0 size=N/A time=00:00:58.30 bitrate=N/A speed=14.2x    frame= 1555 fps=335 q=-0.0 size=N/A time=00:01:04.85 bitrate=N/A speed=  14x    frame= 1717 fps=333 q=-0.0 size=N/A time=00:01:11.61 bitrate=N/A speed=13.9x    frame= 1882 fps=332 q=-0.0 size=N/A time=00:01:18.49 bitrate=N/A speed=13.8x    frame= 2044 fps=331 q=-0.0 size=N/A time=00:01:25.25 bitrate=N/A speed=13.8x    frame= 2159 fps=322 q=-0.0 size=N/A time=00:01:30.04 bitrate=N/A speed=13.4x    frame= 2322 fps=322 q=-0.0 size=N/A time=00:01:36.84 bitrate=N/A speed=13.4x    frame= 2466 fps=319 q=-0.0 size=N/A time=00:01:42.85 bitrate=N/A speed=13.3x    frame= 2615 fps=317 q=-0.0 size=N/A time=00:01:49.06 bitrate=N/A speed=13.2x    frame= 2804 fps=320 q=-0.0 size=N/A time=00:01:56.95 bitrate=N/A speed=13.3x    frame= 2980 fps=321 q=-0.0 size=N/A time=00:02:04.29 bitrate=N/A speed=13.4x    frame= 3179 fps=325 q=-0.0 size=N/A time=00:02:12.59 bitrate=N/A speed=13.5x    frame= 3379 fps=327 q=-0.0 size=N/A time=00:02:20.93 bitrate=N/A speed=13.7x    frame= 3577 fps=330 q=-0.0 size=N/A time=00:02:29.19 bitrate=N/A speed=13.8x    frame= 3787 fps=334 q=-0.0 size=N/A time=00:02:37.94 bitrate=N/A speed=13.9x    frame= 3984 fps=336 q=-0.0 size=N/A time=00:02:46.16 bitrate=N/A speed=  14x    frame= 4188 fps=339 q=-0.0 size=N/A time=00:02:54.67 bitrate=N/A speed=14.1x    frame= 4402 fps=341 q=-0.0 size=N/A time=00:03:03.60 bitrate=N/A speed=14.2x    frame= 4602 fps=343 q=-0.0 size=N/A time=00:03:11.94 bitrate=N/A speed=14.3x    frame= 4809 fps=345 q=-0.0 size=N/A time=00:03:20.57 bitrate=N/A speed=14.4x    frame= 5007 fps=347 q=-0.0 size=N/A time=00:03:28.83 bitrate=N/A speed=14.5x    frame= 5218 fps=349 q=-0.0 size=N/A time=00:03:37.63 bitrate=N/A speed=14.5x    frame= 5422 fps=350 q=-0.0 size=N/A time=00:03:46.14 bitrate=N/A speed=14.6x    frame= 5623 fps=352 q=-0.0 size=N/A time=00:03:54.52 bitrate=N/A speed=14.7x    frame= 5820 fps=353 q=-0.0 size=N/A time=00:04:02.74 bitrate=N/A speed=14.7x    frame= 6022 fps=354 q=-0.0 size=N/A time=00:04:11.16 bitrate=N/A speed=14.8x    frame= 6215 fps=354 q=-0.0 size=N/A time=00:04:19.21 bitrate=N/A speed=14.8x    frame= 6416 fps=356 q=-0.0 size=N/A time=00:04:27.60 bitrate=N/A speed=14.8x    frame= 6618 fps=357 q=-0.0 size=N/A time=00:04:36.02 bitrate=N/A speed=14.9x    frame= 6820 fps=357 q=-0.0 size=N/A time=00:04:44.45 bitrate=N/A speed=14.9x    frame= 7017 fps=358 q=-0.0 size=N/A time=00:04:52.66 bitrate=N/A speed=14.9x    frame= 7214 fps=359 q=-0.0 size=N/A time=00:05:00.88 bitrate=N/A speed=  15x    frame= 7403 fps=359 q=-0.0 size=N/A time=00:05:08.76 bitrate=N/A speed=  15x    frame= 7598 fps=359 q=-0.0 size=N/A time=00:05:16.89 bitrate=N/A speed=  15x    frame= 7794 fps=360 q=-0.0 size=N/A time=00:05:25.07 bitrate=N/A speed=  15x    frame= 7993 fps=361 q=-0.0 size=N/A time=00:05:33.37 bitrate=N/A speed=  15x    frame= 8186 fps=361 q=-0.0 size=N/A time=00:05:41.42 bitrate=N/A speed=15.1x    frame= 8389 fps=361 q=-0.0 size=N/A time=00:05:49.89 bitrate=N/A speed=15.1x    frame= 8584 fps=362 q=-0.0 size=N/A time=00:05:58.02 bitrate=N/A speed=15.1x    frame= 8792 fps=363 q=-0.0 size=N/A time=00:06:06.69 bitrate=N/A speed=15.1x    frame= 8990 fps=363 q=-0.0 size=N/A time=00:06:14.95 bitrate=N/A speed=15.2x    frame= 9205 fps=364 q=-0.0 size=N/A time=00:06:23.92 bitrate=N/A speed=15.2x    frame= 9406 fps=365 q=-0.0 size=N/A time=00:06:32.30 bitrate=N/A speed=15.2x    frame= 9604 fps=365 q=-0.0 size=N/A time=00:06:40.56 bitrate=N/A speed=15.2x    frame= 9800 fps=366 q=-0.0 size=N/A time=00:06:48.74 bitrate=N/A speed=15.2x    frame=10008 fps=366 q=-0.0 size=N/A time=00:06:57.41 bitrate=N/A speed=15.3x    frame=10203 fps=366 q=-0.0 size=N/A time=00:07:05.55 bitrate=N/A speed=15.3x    frame=10406 fps=367 q=-0.0 size=N/A time=00:07:14.01 bitrate=N/A speed=15.3x    frame=10596 fps=367 q=-0.0 size=N/A time=00:07:21.94 bitrate=N/A speed=15.3x    frame=10784 fps=367 q=-0.0 size=N/A time=00:07:29.78 bitrate=N/A speed=15.3x    frame=10977 fps=367 q=-0.0 size=N/A time=00:07:37.83 bitrate=N/A speed=15.3x    frame=11169 fps=367 q=-0.0 size=N/A time=00:07:45.84 bitrate=N/A speed=15.3x    frame=11359 fps=367 q=-0.0 size=N/A time=00:07:53.76 bitrate=N/A speed=15.3x    frame=11564 fps=368 q=-0.0 size=N/A time=00:08:02.31 bitrate=N/A speed=15.3x    frame=11755 fps=368 q=-0.0 size=N/A time=00:08:10.28 bitrate=N/A speed=15.3x    frame=11953 fps=368 q=-0.0 size=N/A time=00:08:18.53 bitrate=N/A speed=15.3x    frame=12150 fps=368 q=-0.0 size=N/A time=00:08:26.75 bitrate=N/A speed=15.4x    frame=12351 fps=368 q=-0.0 size=N/A time=00:08:35.13 bitrate=N/A speed=15.4x    frame=12551 fps=369 q=-0.0 size=N/A time=00:08:43.48 bitrate=N/A speed=15.4x    frame=12750 fps=369 q=-0.0 size=N/A time=00:08:51.78 bitrate=N/A speed=15.4x    frame=12952 fps=369 q=-0.0 size=N/A time=00:09:00.20 bitrate=N/A speed=15.4x    frame=13154 fps=370 q=-0.0 size=N/A time=00:09:08.63 bitrate=N/A speed=15.4x    frame=13349 fps=370 q=-0.0 size=N/A time=00:09:16.76 bitrate=N/A speed=15.4x    frame=13545 fps=370 q=-0.0 size=N/A time=00:09:24.93 bitrate=N/A speed=15.4x    frame=13748 fps=370 q=-0.0 size=N/A time=00:09:33.40 bitrate=N/A speed=15.4x    frame=13944 fps=370 q=-0.0 size=N/A time=00:09:41.58 bitrate=N/A speed=15.4x    frame=14124 fps=370 q=-0.0 size=N/A time=00:09:49.08 bitrate=N/A speed=15.4x    frame=14312 fps=370 q=-0.0 size=N/A time=00:09:56.92 bitrate=N/A speed=15.4x    frame=14494 fps=370 q=-0.0 size=N/A time=00:10:04.52 bitrate=N/A speed=15.4x    frame=14685 fps=370 q=-0.0 size=N/A time=00:10:12.48 bitrate=N/A speed=15.4x    frame=14877 fps=370 q=-0.0 size=N/A time=00:10:20.49 bitrate=N/A speed=15.4x    frame=15065 fps=370 q=-0.0 size=N/A time=00:10:28.33 bitrate=N/A speed=15.4x    frame=15223 fps=369 q=-0.0 size=N/A time=00:10:34.92 bitrate=N/A speed=15.4x    frame=15400 fps=369 q=-0.0 size=N/A time=00:10:42.30 bitrate=N/A speed=15.4x    frame=15581 fps=368 q=-0.0 size=N/A time=00:10:49.85 bitrate=N/A speed=15.4x    frame=15759 fps=368 q=-0.0 size=N/A time=00:10:57.28 bitrate=N/A speed=15.4x    frame=15943 fps=368 q=-0.0 size=N/A time=00:11:04.95 bitrate=N/A speed=15.3x    frame=16143 fps=368 q=-0.0 size=N/A time=00:11:13.29 bitrate=N/A speed=15.4x    frame=16349 fps=369 q=-0.0 size=N/A time=00:11:21.88 bitrate=N/A speed=15.4x    frame=16547 fps=369 q=-0.0 size=N/A time=00:11:30.14 bitrate=N/A speed=15.4x    frame=16749 fps=369 q=-0.0 size=N/A time=00:11:38.57 bitrate=N/A speed=15.4x    frame=16945 fps=369 q=-0.0 size=N/A time=00:11:46.74 bitrate=N/A speed=15.4x    frame=17153 fps=369 q=-0.0 size=N/A time=00:11:55.42 bitrate=N/A speed=15.4x    frame=17354 fps=370 q=-0.0 size=N/A time=00:12:03.80 bitrate=N/A speed=15.4x    frame=17550 fps=370 q=-0.0 size=N/A time=00:12:11.98 bitrate=N/A speed=15.4x    frame=17743 fps=370 q=-0.0 size=N/A time=00:12:20.03 bitrate=N/A speed=15.4x    frame=17938 fps=370 q=-0.0 size=N/A time=00:12:28.16 bitrate=N/A speed=15.4x    frame=18141 fps=370 q=-0.0 size=N/A time=00:12:36.63 bitrate=N/A speed=15.4x    frame=18334 fps=370 q=-0.0 size=N/A time=00:12:44.68 bitrate=N/A speed=15.4x    frame=18526 fps=370 q=-0.0 size=N/A time=00:12:52.68 bitrate=N/A speed=15.4x    frame=18730 fps=370 q=-0.0 size=N/A time=00:13:01.19 bitrate=N/A speed=15.5x    frame=18931 fps=371 q=-0.0 size=N/A time=00:13:09.58 bitrate=N/A speed=15.5x    frame=19144 fps=371 q=-0.0 size=N/A time=00:13:18.46 bitrate=N/A speed=15.5x    frame=19352 fps=371 q=-0.0 size=N/A time=00:13:27.13 bitrate=N/A speed=15.5x    frame=19538 fps=371 q=-0.0 size=N/A time=00:13:34.89 bitrate=N/A speed=15.5x    frame=19741 fps=372 q=-0.0 size=N/A time=00:13:43.36 bitrate=N/A speed=15.5x    frame=19932 fps=371 q=-0.0 size=N/A time=00:13:51.33 bitrate=N/A speed=15.5x    frame=20134 fps=372 q=-0.0 size=N/A time=00:13:59.75 bitrate=N/A speed=15.5x    frame=20339 fps=372 q=-0.0 size=N/A time=00:14:08.30 bitrate=N/A speed=15.5x    frame=20526 fps=372 q=-0.0 size=N/A time=00:14:16.10 bitrate=N/A speed=15.5x    frame=20719 fps=372 q=-0.0 size=N/A time=00:14:24.15 bitrate=N/A speed=15.5x    frame=20921 fps=372 q=-0.0 size=N/A time=00:14:32.58 bitrate=N/A speed=15.5x    frame=21120 fps=372 q=-0.0 size=N/A time=00:14:40.88 bitrate=N/A speed=15.5x    frame=21318 fps=372 q=-0.0 size=N/A time=00:14:49.13 bitrate=N/A speed=15.5x    frame=21513 fps=372 q=-0.0 size=N/A time=00:14:57.27 bitrate=N/A speed=15.5x    frame=21713 fps=372 q=-0.0 size=N/A time=00:15:05.61 bitrate=N/A speed=15.5x    frame=21906 fps=372 q=-0.0 size=N/A time=00:15:13.66 bitrate=N/A speed=15.5x    frame=22113 fps=373 q=-0.0 size=N/A time=00:15:22.29 bitrate=N/A speed=15.5x    frame=22311 fps=373 q=-0.0 size=N/A time=00:15:30.55 bitrate=N/A speed=15.6x    frame=22520 fps=373 q=-0.0 size=N/A time=00:15:39.27 bitrate=N/A speed=15.6x    frame=22716 fps=373 q=-0.0 size=N/A time=00:15:47.44 bitrate=N/A speed=15.6x    frame=22914 fps=373 q=-0.0 size=N/A time=00:15:55.70 bitrate=N/A speed=15.6x    frame=23116 fps=373 q=-0.0 size=N/A time=00:16:04.12 bitrate=N/A speed=15.6x    frame=23310 fps=373 q=-0.0 size=N/A time=00:16:12.22 bitrate=N/A speed=15.6x    frame=23516 fps=374 q=-0.0 size=N/A time=00:16:20.81 bitrate=N/A speed=15.6x    frame=23720 fps=374 q=-0.0 size=N/A time=00:16:29.32 bitrate=N/A speed=15.6x    frame=23922 fps=374 q=-0.0 size=N/A time=00:16:37.74 bitrate=N/A speed=15.6x    frame=24118 fps=374 q=-0.0 size=N/A time=00:16:45.92 bitrate=N/A speed=15.6x    frame=24313 fps=374 q=-0.0 size=N/A time=00:16:54.05 bitrate=N/A speed=15.6x    frame=24515 fps=374 q=-0.0 size=N/A time=00:17:02.47 bitrate=N/A speed=15.6x    frame=24723 fps=374 q=-0.0 size=N/A time=00:17:11.15 bitrate=N/A speed=15.6x    frame=24924 fps=375 q=-0.0 size=N/A time=00:17:19.53 bitrate=N/A speed=15.6x    frame=25124 fps=375 q=-0.0 size=N/A time=00:17:27.88 bitrate=N/A speed=15.6x    frame=25329 fps=375 q=-0.0 size=N/A time=00:17:36.43 bitrate=N/A speed=15.6x    frame=25528 fps=375 q=-0.0 size=N/A time=00:17:44.73 bitrate=N/A speed=15.6x    frame=25729 fps=375 q=-0.0 size=N/A time=00:17:53.11 bitrate=N/A speed=15.6x    frame=25921 fps=375 q=-0.0 size=N/A time=00:18:01.12 bitrate=N/A speed=15.6x    frame=26126 fps=375 q=-0.0 size=N/A time=00:18:09.67 bitrate=N/A speed=15.6x    frame=26331 fps=375 q=-0.0 size=N/A time=00:18:18.22 bitrate=N/A speed=15.7x    frame=26535 fps=375 q=-0.0 size=N/A time=00:18:26.73 bitrate=N/A speed=15.7x    frame=26737 fps=376 q=-0.0 size=N/A time=00:18:35.15 bitrate=N/A speed=15.7x    frame=26931 fps=376 q=-0.0 size=N/A time=00:18:43.24 bitrate=N/A speed=15.7x    frame=27119 fps=376 q=-0.0 size=N/A time=00:18:51.08 bitrate=N/A speed=15.7x    frame=27303 fps=375 q=-0.0 size=N/A time=00:18:58.76 bitrate=N/A speed=15.7x    frame=27499 fps=375 q=-0.0 size=N/A time=00:19:06.93 bitrate=N/A speed=15.7x    frame=27690 fps=375 q=-0.0 size=N/A time=00:19:14.90 bitrate=N/A speed=15.7x    frame=27886 fps=375 q=-0.0 size=N/A time=00:19:23.07 bitrate=N/A speed=15.7x    frame=28085 fps=376 q=-0.0 size=N/A time=00:19:31.37 bitrate=N/A speed=15.7x    frame=28296 fps=376 q=-0.0 size=N/A time=00:19:40.17 bitrate=N/A speed=15.7x    frame=28483 fps=376 q=-0.0 size=N/A time=00:19:47.97 bitrate=N/A speed=15.7x    frame=28687 fps=376 q=-0.0 size=N/A time=00:19:56.48 bitrate=N/A speed=15.7x    frame=28866 fps=376 q=-0.0 size=N/A time=00:20:03.95 bitrate=N/A speed=15.7x    frame=29051 fps=375 q=-0.0 size=N/A time=00:20:11.66 bitrate=N/A speed=15.7x    frame=29236 fps=375 q=-0.0 size=N/A time=00:20:19.38 bitrate=N/A speed=15.7x    frame=29423 fps=375 q=-0.0 size=N/A time=00:20:27.18 bitrate=N/A speed=15.7x    frame=29604 fps=375 q=-0.0 size=N/A time=00:20:34.73 bitrate=N/A speed=15.6x    frame=29791 fps=375 q=-0.0 size=N/A time=00:20:42.53 bitrate=N/A speed=15.6x    frame=29973 fps=375 q=-0.0 size=N/A time=00:20:50.12 bitrate=N/A speed=15.6x    frame=30148 fps=375 q=-0.0 size=N/A time=00:20:57.42 bitrate=N/A speed=15.6x    frame=30350 fps=375 q=-0.0 size=N/A time=00:21:05.84 bitrate=N/A speed=15.6x    frame=30551 fps=375 q=-0.0 size=N/A time=00:21:14.23 bitrate=N/A speed=15.6x    frame=30751 fps=375 q=-0.0 size=N/A time=00:21:22.57 bitrate=N/A speed=15.6x    frame=30953 fps=375 q=-0.0 size=N/A time=00:21:30.99 bitrate=N/A speed=15.6x    frame=31153 fps=375 q=-0.0 size=N/A time=00:21:39.33 bitrate=N/A speed=15.6x    frame=31359 fps=375 q=-0.0 size=N/A time=00:21:47.93 bitrate=N/A speed=15.7x    frame=31552 fps=375 q=-0.0 size=N/A time=00:21:55.98 bitrate=N/A speed=15.7x    frame=31751 fps=375 q=-0.0 size=N/A time=00:22:04.28 bitrate=N/A speed=15.7x    frame=31937 fps=375 q=-0.0 size=N/A time=00:22:12.03 bitrate=N/A speed=15.7x    frame=32132 fps=375 q=-0.0 size=N/A time=00:22:20.17 bitrate=N/A speed=15.7x    frame=32335 fps=375 q=-0.0 size=N/A time=00:22:28.63 bitrate=N/A speed=15.7x    frame=32536 fps=375 q=-0.0 size=N/A time=00:22:37.02 bitrate=N/A speed=15.7x    frame=32700 fps=375 q=-0.0 size=N/A time=00:22:43.86 bitrate=N/A speed=15.6x    frame=32876 fps=375 q=-0.0 size=N/A time=00:22:51.20 bitrate=N/A speed=15.6x    frame=33061 fps=375 q=-0.0 size=N/A time=00:22:58.91 bitrate=N/A speed=15.6x    frame=33253 fps=375 q=-0.0 size=N/A time=00:23:06.92 bitrate=N/A speed=15.6x    frame=33428 fps=375 q=-0.0 size=N/A time=00:23:14.22 bitrate=N/A speed=15.6x    frame=33588 fps=374 q=-0.0 size=N/A time=00:23:20.89 bitrate=N/A speed=15.6x    frame=33746 fps=374 q=-0.0 size=N/A time=00:23:27.48 bitrate=N/A speed=15.6x    frame=33876 fps=373 q=-0.0 size=N/A time=00:23:32.91 bitrate=N/A speed=15.6x    frame=34041 fps=373 q=-0.0 size=N/A time=00:23:39.79 bitrate=N/A speed=15.6x    frame=34213 fps=373 q=-0.0 size=N/A time=00:23:46.96 bitrate=N/A speed=15.5x    frame=34356 fps=372 q=-0.0 size=N/A time=00:23:52.93 bitrate=N/A speed=15.5x    frame=34507 fps=372 q=-0.0 size=N/A time=00:23:59.22 bitrate=N/A speed=15.5x    [Parsed_ssim_16 @ 00000104d8a33900] SSIM Y:0.994164 (22.339154) U:0.993973 (22.199057) V:0.993580 (21.924721) All:0.994035 (22.243999)
[out#0/null @ 00000104cb533a00] video:14903KiB audio:271276KiB subtitle:0KiB other streams:0KiB global headers:0KiB muxing overhead: unknown
frame=34683 fps=372 q=-0.0 Lsize=N/A time=00:24:06.57 bitrate=N/A speed=15.5x    
